<svg width="19" height="18" viewBox="0 0 19 18" fill="none" xmlns="http://www.w3.org/2000/svg">
<path d="M9.5 0C12.0811 0 12.4032 0.00899995 13.4159 0.0539999C14.4276 0.0989999 15.1164 0.2493 15.7225 0.4725C16.3495 0.7011 16.8777 1.0107 17.4059 1.5102C17.889 1.96011 18.2628 2.50433 18.5013 3.105C18.7359 3.6783 18.8955 4.3317 18.943 5.2902C18.9877 6.2496 19 6.5547 19 9C19 11.4453 18.9905 11.7504 18.943 12.7098C18.8955 13.6683 18.7359 14.3208 18.5013 14.895C18.2634 15.496 17.8896 16.0404 17.4059 16.4898C16.9309 16.9473 16.3564 17.3014 15.7225 17.5275C15.1173 17.7498 14.4276 17.901 13.4159 17.946C12.4032 17.9883 12.0811 18 9.5 18C6.91885 18 6.5968 17.991 5.5841 17.946C4.57235 17.901 3.8836 17.7498 3.2775 17.5275C2.64321 17.302 2.06865 16.9479 1.5941 16.4898C1.11094 16.04 0.737135 15.4957 0.49875 14.895C0.26315 14.3217 0.1045 13.6683 0.0569999 12.7098C0.0123499 11.7504 0 11.4453 0 9C0 6.5547 0.00949994 6.2496 0.0569999 5.2902C0.1045 4.3308 0.26315 3.6792 0.49875 3.105C0.736474 2.50396 1.11036 1.95959 1.5941 1.5102C2.06879 1.05231 2.64331 0.698156 3.2775 0.4725C3.8836 0.2493 4.5714 0.0989999 5.5841 0.0539999C6.5968 0.0116999 6.91885 0 9.5 0ZM9.5 4.5C8.24022 4.5 7.03204 4.97411 6.14124 5.81802C5.25044 6.66193 4.75 7.80653 4.75 9C4.75 10.1935 5.25044 11.3381 6.14124 12.182C7.03204 13.0259 8.24022 13.5 9.5 13.5C10.7598 13.5 11.968 13.0259 12.8588 12.182C13.7496 11.3381 14.25 10.1935 14.25 9C14.25 7.80653 13.7496 6.66193 12.8588 5.81802C11.968 4.97411 10.7598 4.5 9.5 4.5ZM15.675 4.275C15.675 3.97663 15.5499 3.69048 15.3272 3.4795C15.1045 3.26853 14.8024 3.15 14.4875 3.15C14.1726 3.15 13.8705 3.26853 13.6478 3.4795C13.4251 3.69048 13.3 3.97663 13.3 4.275C13.3 4.57337 13.4251 4.85952 13.6478 5.07049C13.8705 5.28147 14.1726 5.4 14.4875 5.4C14.8024 5.4 15.1045 5.28147 15.3272 5.07049C15.5499 4.85952 15.675 4.57337 15.675 4.275ZM9.5 6.3C10.2559 6.3 10.9808 6.58446 11.5153 7.09081C12.0497 7.59716 12.35 8.28392 12.35 9C12.35 9.71608 12.0497 10.4028 11.5153 10.9092C10.9808 11.4155 10.2559 11.7 9.5 11.7C8.74413 11.7 8.01922 11.4155 7.48475 10.9092C6.95027 10.4028 6.65 9.71608 6.65 9C6.65 8.28392 6.95027 7.59716 7.48475 7.09081C8.01922 6.58446 8.74413 6.3 9.5 6.3Z" fill="white"/>
</svg>
